<?xml version="1.0" encoding="UTF-8"?>
<!-- Generated by Pixelmator Pro 3.5.7 -->
<svg width="66" height="65" viewBox="0 0 66 65" xmlns="http://www.w3.org/2000/svg">
    <path id="Path" fill="#f6f8ff" stroke="none" d="M 10 0 L 56 0 C 61.522846 0 66 4.477154 66 10 L 66 55 C 66 60.522846 61.522846 65 56 65 L 10 65 C 4.477152 65 0 60.522846 0 55 L 0 10 C -0 4.477154 4.477152 0 10 0 Z"/>
    <path id="path1" fill="#05a89d" stroke="none" d="M 44.5737 18 C 45.3391 18 45.9604 18.627197 45.9604 19.400002 L 45.9604 24.659798 L 33.481602 37.2598 L 33.473301 43.193001 L 39.361099 43.201401 L 45.9604 36.538799 L 45.9604 44.599998 C 45.9604 45.372799 45.3391 46 44.5737 46 L 22.3867 46 C 21.621201 46 21 45.372799 21 44.599998 L 21 19.400002 C 21 18.627197 21.621201 18 22.3867 18 L 44.5737 18 Z M 47.0392 27.5312 L 49 29.510799 L 38.214298 40.400002 L 36.250801 40.397202 L 36.253601 38.420399 L 47.0392 27.5312 Z M 33.480202 32 L 26.546801 32 L 26.546801 34.799999 L 33.480202 34.799999 L 33.480202 32 Z M 37.640301 26.400002 L 26.546801 26.400002 L 26.546801 29.200001 L 37.640301 29.200001 L 37.640301 26.400002 Z"/>
</svg>
