<?xml version="1.0" encoding="UTF-8"?>
<!-- Generated by Pixelmator Pro 3.5.7 -->
<svg width="66" height="65" viewBox="0 0 66 65" xmlns="http://www.w3.org/2000/svg">
    <path id="Path" fill="#f6f8ff" stroke="none" d="M 10 0 L 56 0 C 61.522846 0 66 4.477154 66 10 L 66 55 C 66 60.522846 61.522846 65 56 65 L 10 65 C 4.477152 65 0 60.522846 0 55 L 0 10 C -0 4.477154 4.477152 0 10 0 Z"/>
    <path id="path1" fill="#05a89d" stroke="none" d="M 45 31.289398 L 45 43.394699 C 45.001202 43.514599 44.9659 43.632 44.898899 43.731499 C 44.831902 43.830898 44.736301 43.9076 44.624699 43.9515 C 44.5527 43.984901 44.474098 44.0014 44.394699 43.999901 C 44.313702 43.999901 44.233501 43.983799 44.158699 43.952599 C 44.0839 43.921501 44.015999 43.875801 43.9589 43.818401 L 41.767899 41.578899 L 31.079 41.578899 C 29.955299 41.578899 28.8776 41.1325 28.083099 40.338001 C 27.2885 39.5434 26.8421 38.465698 26.8421 37.342098 L 35.921001 37.342098 C 37.526299 37.342098 39.0658 36.704399 40.200901 35.569302 C 41.335999 34.4342 41.973701 32.894699 41.973701 31.289398 L 41.973701 27.2342 C 42.8465 27.4958 43.612 28.031403 44.157001 28.7617 C 44.702 29.492001 44.997501 30.378201 45 31.289398 Z M 40.157902 31.289398 L 40.157902 25.236801 C 40.157902 24.113197 39.711498 23.0355 38.916901 22.240898 C 38.122398 21.4464 37.044701 21 35.921001 21 L 26.2369 21 C 25.113199 21 24.0355 21.4464 23.240999 22.240898 C 22.4464 23.0355 22 24.113197 22 25.236801 L 22 37.342098 C 21.9988 37.462002 22.0341 37.579399 22.101101 37.678799 C 22.1681 37.778301 22.2637 37.855 22.375299 37.898899 C 22.4473 37.932201 22.5259 37.948799 22.605301 37.9473 C 22.6863 37.9473 22.7665 37.931198 22.841299 37.900002 C 22.9161 37.8689 22.983999 37.8232 23.0411 37.765701 L 25.2321 35.526299 L 35.921001 35.526299 C 37.044701 35.526299 38.122398 35.079899 38.916901 34.285301 C 39.711498 33.490799 40.157902 32.413101 40.157902 31.289398 Z"/>
</svg>
