<?xml version="1.0" encoding="UTF-8"?>
<!-- Generated by Pixelmator Pro 3.5.7 -->
<svg width="66" height="65" viewBox="0 0 66 65" xmlns="http://www.w3.org/2000/svg">
    <path id="Path" fill="#f6f8ff" stroke="none" d="M 10 0 L 56 0 C 61.522846 0 66 4.477154 66 10 L 66 55 C 66 60.522846 61.522846 65 56 65 L 10 65 C 4.477152 65 0 60.522846 0 55 L 0 10 C -0 4.477154 4.477152 0 10 0 Z"/>
    <path id="path1" fill="none" stroke="#05a89d" stroke-width="2" stroke-linecap="round" stroke-linejoin="round" d="M 30.25 34.635101 L 31.821501 36.3951 L 35.75 31.995102"/>
    <path id="path2" fill="none" stroke="#05a89d" stroke-width="2" stroke-linecap="round" d="M 22 31.994301 C 22 26.8088 22 24.216103 23.610901 22.605202 C 24.9758 21.240299 27.045601 21.031799 30.799999 21 M 44 31.994301 C 44 26.8088 44 24.216103 42.389 22.605202 C 41.0242 21.240299 38.954399 21.031799 35.200001 21"/>
    <path id="path3" fill="none" stroke="#05a89d" stroke-width="2" stroke-linecap="round" d="M 30.799999 42.994499 C 27.7197 42.994499 26.1796 42.994499 25.003099 42.395 C 23.968201 41.867802 23.126801 41.026402 22.599501 39.991501 C 22 38.814999 22 37.274899 22 34.1945 C 22 31.114201 22 29.5741 22.599501 28.397598 C 23.126801 27.362701 23.968201 26.521301 25.003099 25.993999 C 26.1796 25.394501 27.7197 25.394501 30.799999 25.394501 L 35.200001 25.394501 C 38.2803 25.394501 39.8204 25.394501 40.997002 25.993999 C 42.031898 26.521301 42.873299 27.362701 43.400501 28.397598 C 44 29.5741 44 31.114201 44 34.1945 C 44 37.274899 44 38.814999 43.400501 39.991501 C 42.873299 41.026402 42.031898 41.867802 40.997002 42.395 C 39.8204 42.994499 38.2803 42.994499 35.200001 42.994499"/>
</svg>
