<?xml version="1.0" encoding="UTF-8"?>
<!-- Generated by Pixelmator Pro 3.5.7 -->
<svg width="58" height="58" viewBox="0 0 58 58" xmlns="http://www.w3.org/2000/svg">
    <g id="Group">
        <path id="Path" fill="#ffffff" stroke="none" d="M 29 49 C 41.702499 49 52 38.702499 52 26 C 52 13.297501 41.702499 3 29 3 C 16.297501 3 6 13.297501 6 26 C 6 38.702499 16.297501 49 29 49 Z"/>
    </g>
    <path id="path1" fill="#316ff6" stroke="none" d="M 30.8078 35.773102 L 26.5807 35.773102 L 26.5807 26.7731 L 24.4688 26.7731 L 24.4688 23.299103 L 26.5807 23.299103 L 26.5807 21.218102 C 26.5807 18.389099 27.7687 16.705101 31.161699 16.705101 L 33.9827 16.705101 L 33.9827 20.175102 L 32.220699 20.175102 C 30.901699 20.175102 30.8137 20.6591 30.8137 21.564102 L 30.8078 23.299103 L 34.0028 23.299103 L 33.6287 26.7691 L 30.8078 26.7691 L 30.8078 35.7691 L 30.8078 35.773102 Z"/>
</svg>
