<?xml version="1.0" encoding="UTF-8"?>
<!-- Generated by Pixelmator Pro 3.5.7 -->
<svg width="59" height="59" viewBox="0 0 59 59" xmlns="http://www.w3.org/2000/svg">
    <g id="Group">
        <path id="Path" fill="#ffffff" stroke="none" d="M 29.239 49.478001 C 42.073502 49.478001 52.478001 39.073502 52.478001 26.238998 C 52.478001 13.404499 42.073502 3 29.239 3 C 16.404499 3 6 13.404499 6 26.238998 C 6 39.073502 16.404499 49.478001 29.239 49.478001 Z"/>
    </g>
    <path id="path1" fill="#dd4b39" stroke="none" d="M 25.287399 33.389 C 23.3426 33.399101 21.471001 32.647499 20.0734 31.295 C 19.3908 30.6415 18.847601 29.8566 18.4765 28.9876 C 18.1054 28.118601 17.914101 27.183399 17.914101 26.238503 C 17.914101 25.293503 18.1054 24.358299 18.4765 23.4893 C 18.847601 22.6203 19.3908 21.8354 20.0734 21.181999 C 21.436001 19.876999 23.2384 19.130402 25.124599 19.0896 C 27.0109 19.048901 28.8438 19.716999 30.2614 20.961998 L 28.089399 23.026001 C 27.2994 22.379601 26.3102 22.026299 25.2894 22.026001 C 24.155199 22.009701 23.0609 22.444199 22.2467 23.2341 C 21.4326 24.024002 20.9653 25.104797 20.947399 26.238998 C 20.9664 27.372101 21.433901 28.4515 22.2474 29.240499 C 23.061001 30.029499 24.1542 30.463699 25.287399 30.448 C 26.157499 30.4517 27.008699 30.1952 27.731899 29.711399 C 28.455 29.2276 29.016899 28.538601 29.3454 27.733 L 25.194401 27.733 L 25.194401 24.746002 L 32.4944 24.746002 C 32.75 25.917603 32.700401 27.1353 32.350101 28.282301 C 31.999901 29.429199 31.360901 30.4669 30.4944 31.296 C 29.0984 32.6464 27.2297 33.397499 25.287399 33.389 Z M 38.587399 29.27 L 36.720402 29.27 L 36.720402 26.781998 L 34.1544 26.781998 L 34.1544 24.972 L 36.720402 24.972 L 36.720402 22.483002 L 38.587399 22.483002 L 38.587399 24.972 L 41.1534 24.972 L 41.1534 26.781998 L 38.587399 26.781998 L 38.587399 29.271 L 38.587399 29.27 Z"/>
</svg>
