<?xml version="1.0" encoding="UTF-8"?>
<!-- Generated by Pixelmator Pro 3.5.7 -->
<svg width="206" height="43" viewBox="0 0 206 43" xmlns="http://www.w3.org/2000/svg">
    <path id="Path" fill="#1ee5ce" stroke="none" d="M 5 23.049978 L 13.55465 23.049978 C 15.5066 23.049978 17.528749 22.934078 19.190149 21.936579 C 20.48885 21.156914 21.58202 20.091681 22.382299 18.826378 C 23.40605 17.207579 23.525 15.237282 23.525 13.335384 L 23.525 5 L 10.85 5 C 9.298483 5 7.810515 5.600586 6.713426 6.669529 C 5.616337 7.738464 5 9.188354 5 10.699993 L 5 23.049978 Z M 44 41.100002 C 44 40.596096 43.794567 40.112823 43.428844 39.756504 C 43.063122 39.400177 42.567139 39.200005 42.049999 39.200005 C 41.53286 39.200005 41.036877 39.400177 40.671154 39.756504 C 40.305435 40.112823 40.099998 40.596096 40.099998 41.100002 C 40.099998 41.603909 40.305435 42.087181 40.671154 42.443504 C 41.036877 42.799824 41.53286 43 42.049999 43 C 42.567139 43 43.063122 42.799824 43.428844 42.443504 C 43.794567 42.087181 44 41.603909 44 41.100002 Z"/>
    <path id="Path-copy-2" fill="#1ee5ce" stroke="none" d="M 39 19.425022 L 30.445351 19.425022 C 28.493401 19.425022 26.471251 19.537872 24.809851 20.509121 C 23.51115 21.268267 22.41798 22.305468 21.617701 23.537474 C 20.59395 25.113672 20.475 27.03212 20.475 28.883968 L 20.475 37 L 33.150002 37 C 34.701519 37 36.189484 36.415218 37.286575 35.374405 C 38.383663 34.333599 39 32.921867 39 31.450006 L 39 19.425022 Z M 0 1.849998 C 0 2.340645 0.205433 2.811199 0.571155 3.158142 C 0.936877 3.505089 1.432861 3.699997 1.95 3.699997 C 2.467139 3.699997 2.963123 3.505089 3.328845 3.158142 C 3.694566 2.811199 3.9 2.340645 3.9 1.849998 C 3.9 1.359352 3.694566 0.888794 3.328845 0.541851 C 2.963123 0.194908 2.467139 0 1.95 0 C 1.432861 0 0.936877 0.194908 0.571155 0.541851 C 0.205433 0.888794 0 1.359352 0 1.849998 Z"/>
    <text id="Echonotes" xml:space="preserve" x="52" y="35" font-family="Outfit" font-size="32" font-weight="600" fill="#00a1fe">Echonotes</text>
</svg>
