<?xml version="1.0" encoding="UTF-8"?>
<!-- Generated by Pixelmator Pro 3.5.7 -->
<svg width="13" height="13" viewBox="0 0 13 13" xmlns="http://www.w3.org/2000/svg">
    <path id="Path" fill="#05a89d" stroke="none" d="M 9.94893 1.40177 L 9.90308 3.8843 C 9.89653 4.22491 10.1127 4.67687 10.3878 4.87993 L 12.0122 6.11134 C 13.0537 6.89736 12.8834 7.86024 11.6389 8.25325 L 9.52316 8.91482 C 9.16945 9.02618 8.79609 9.41264 8.70439 9.7729 L 8.20002 11.6987 C 7.80046 13.2183 6.80483 13.369 5.97951 12.0327 L 4.82665 10.1659 C 4.61704 9.8253 4.11923 9.56984 3.72622 9.58949 L 1.53845 9.70085 C -0.027047 9.77945 -0.472461 8.87552 0.54937 7.68339 L 1.84631 6.17684 C 2.08867 5.89518 2.20002 5.37117 2.08867 5.01748 L 1.42055 2.89522 C 1.03409 1.65068 1.72841 0.962908 2.96639 1.36902 L 4.8987 2.00439 C 5.22623 2.10919 5.7175 2.03714 5.99261 1.83408 L 8.01007 0.37994 C 9.10395 -0.399533 9.97513 0.058981 9.94893 1.40177 Z"/>
    <path id="path1" fill="#05a89d" stroke="none" d="M 12.6652 12.0979 L 10.6805 10.1132 C 10.4906 9.92321 10.1762 9.92321 9.98622 10.1132 C 9.79626 10.3031 9.79626 10.6175 9.98622 10.8075 L 11.9709 12.7922 C 12.0692 12.8905 12.1936 12.9363 12.3181 12.9363 C 12.4425 12.9363 12.567 12.8905 12.6652 12.7922 C 12.8552 12.6022 12.8552 12.2878 12.6652 12.0979 Z"/>
</svg>
