<?xml version="1.0" encoding="UTF-8"?>
<!-- Generated by Pixelmator Pro 3.5.7 -->
<svg width="59" height="59" viewBox="0 0 59 59" xmlns="http://www.w3.org/2000/svg">
    <g id="Group">
        <path id="Path" fill="#ffffff" stroke="none" d="M 29.24 49.48 C 42.0751 49.48 52.48 39.0751 52.48 26.239998 C 52.48 13.4049 42.0751 3 29.24 3 C 16.4049 3 6 13.4049 6 26.239998 C 6 39.0751 16.4049 49.48 29.24 49.48 Z"/>
    </g>
    <path id="path1" fill="#239de6" stroke="none" d="M 38.7789 20.326698 C 38.0648 20.6427 37.3074 20.850403 36.531898 20.942699 C 37.348598 20.454201 37.9599 19.685501 38.2519 18.779701 C 37.483799 19.235397 36.643299 19.556 35.766899 19.727699 C 35.230099 19.155701 34.533699 18.758202 33.7682 18.5868 C 33.002701 18.415398 32.2033 18.477898 31.473801 18.766399 C 30.744301 19.054802 30.1182 19.555801 29.676901 20.204399 C 29.2356 20.853001 28.999399 21.619301 28.998899 22.403702 C 28.998301 22.703899 29.0319 23.003201 29.0989 23.2957 C 27.544001 23.217598 26.023001 22.813301 24.634399 22.1092 C 23.2458 21.405098 22.020901 20.416901 21.0389 19.208702 C 20.538601 20.069801 20.3853 21.089199 20.6101 22.059299 C 20.8349 23.0294 21.4209 23.877502 22.248899 24.430702 C 21.627899 24.411598 21.0205 24.2435 20.4779 23.940701 L 20.4779 23.992699 C 20.4783 24.894897 20.7903 25.769199 21.3612 26.467697 C 21.932199 27.166201 22.7269 27.645901 23.610901 27.825701 C 23.2749 27.9172 22.9282 27.9632 22.579901 27.9627 C 22.3346 27.962799 22.0898 27.939301 21.8489 27.8927 C 22.0991 28.67 22.5858 29.349701 23.2411 29.8368 C 23.8964 30.323999 24.687599 30.5942 25.503901 30.609699 C 24.117201 31.6964 22.405701 32.285599 20.6439 32.2827 C 20.3321 32.283199 20.020599 32.265202 19.710899 32.228699 C 21.500601 33.3787 23.5837 33.988701 25.710899 33.985699 C 27.174999 33.995602 28.626499 33.7145 29.981001 33.158699 C 31.3356 32.603001 32.566299 31.7836 33.601501 30.7484 C 34.636799 29.7131 35.4561 28.482401 36.011902 27.127899 C 36.567699 25.7733 36.848801 24.3218 36.838902 22.8577 C 36.838902 22.687698 36.838902 22.519699 36.8279 22.3517 C 37.5937 21.798401 38.2547 21.112999 38.7799 20.327698 L 38.7789 20.326698 Z"/>
</svg>
