<?xml version="1.0" encoding="UTF-8"?>
<!-- Generated by Pixelmator Pro 3.5.7 -->
<svg width="45" height="43" viewBox="0 0 45 43" xmlns="http://www.w3.org/2000/svg">
    <path id="Path" fill="#1ee5ce" stroke="none" d="M 6 23.049978 L 14.55465 23.049978 C 16.506599 23.049978 18.528749 22.934078 20.190149 21.936579 C 21.48885 21.156914 22.58202 20.091681 23.382299 18.826378 C 24.40605 17.207579 24.525 15.237282 24.525 13.335384 L 24.525 5 L 11.85 5 C 10.298483 5 8.810515 5.600586 7.713426 6.669529 C 6.616337 7.738464 6 9.188354 6 10.699993 L 6 23.049978 Z M 45 41.100002 C 45 40.596096 44.794567 40.112823 44.428844 39.756504 C 44.063122 39.400177 43.567139 39.200005 43.049999 39.200005 C 42.53286 39.200005 42.036877 39.400177 41.671154 39.756504 C 41.305435 40.112823 41.099998 40.596096 41.099998 41.100002 C 41.099998 41.603909 41.305435 42.087181 41.671154 42.443504 C 42.036877 42.799824 42.53286 43 43.049999 43 C 43.567139 43 44.063122 42.799824 44.428844 42.443504 C 44.794567 42.087181 45 41.603909 45 41.100002 Z"/>
    <path id="Path-copy-2" fill="#1ee5ce" stroke="none" d="M 40 19.425022 L 31.445351 19.425022 C 29.493401 19.425022 27.471251 19.537872 25.809851 20.509121 C 24.51115 21.268267 23.41798 22.305468 22.617701 23.537474 C 21.59395 25.113672 21.475 27.03212 21.475 28.883968 L 21.475 37 L 34.150002 37 C 35.701519 37 37.189484 36.415218 38.286575 35.374405 C 39.383663 34.333599 40 32.921867 40 31.450006 L 40 19.425022 Z M 1 1.849998 C 1 2.340645 1.205433 2.811199 1.571155 3.158142 C 1.936877 3.505089 2.432861 3.699997 2.95 3.699997 C 3.467139 3.699997 3.963123 3.505089 4.328845 3.158142 C 4.694567 2.811199 4.9 2.340645 4.9 1.849998 C 4.9 1.359352 4.694567 0.888794 4.328845 0.541851 C 3.963123 0.194908 3.467139 0 2.95 0 C 2.432861 0 1.936877 0.194908 1.571155 0.541851 C 1.205433 0.888794 1 1.359352 1 1.849998 Z"/>
</svg>
